<svg width="24" height="24" viewBox="0 0 24 24" fill="none" xmlns="http://www.w3.org/2000/svg">
    <path opacity="0.6" d="M18.0438 22H16.0829C15.7561 22 15.4427 21.8705 15.2124 21.6402C14.9821 21.4099 14.8539 21.0978 14.8563 20.7733L18.0438 22ZM18.0438 22C18.9596 22.0023 19.8388 21.6428 20.4872 21.0008C21.1356 20.3588 21.5 19.487 21.5 18.5778V9.86686C21.5 9.13246 21.1721 8.43584 20.6046 7.96467L18.0438 22ZM15.8562 20.7807H15.8563V20.7733V17.7156C15.8563 17.0732 15.5991 16.4586 15.1438 16.0066C14.6887 15.5548 14.0731 15.3023 13.4326 15.3023H10.5584C9.22678 15.3023 8.13478 16.3759 8.13478 17.7156V20.0509L8.11318 20.0581L8.10794 20.7749C8.10708 20.8927 8.00863 21 7.87229 21H5.95617C4.59278 21 3.5 19.9047 3.5 18.5689V9.88014C3.51339 9.44142 3.72352 9.02908 4.07685 8.75719L4.08444 8.75135L4.09193 8.74536L10.6103 3.52767L10.6241 3.5166L10.6376 3.50505C11.3986 2.85034 12.5249 2.82987 13.3097 3.45707L13.3128 3.45946L19.9734 8.74036C20.3085 9.02238 20.5 9.43463 20.5 9.86686V18.5778C20.5 19.2189 20.2431 19.8352 19.7836 20.2902C19.3238 20.7455 18.6989 21.0017 18.0464 21H18.0438H16.0829C16.0202 21 15.9615 20.9751 15.9195 20.9331C15.8777 20.8913 15.8558 20.8363 15.8562 20.7807Z" stroke="black" stroke-width="2"/>
</svg>
